<svg xmlns="http://www.w3.org/2000/svg" width="760" height="380" font-family="sans-serif" font-size="13">
<rect width="760" height="380" fill="white"/>
<text x="380.0" y="22" text-anchor="middle" font-size="15" font-weight="bold">Slowdown vs fastest engine — aarch64, 1 thread, AC — 10 trials (median, IQR whiskers)</text>
<line x1="70" y1="320" x2="740" y2="320" stroke="#333"/>
<line x1="70" y1="320" x2="70" y2="40" stroke="#333"/>
<line x1="70" y1="320.0" x2="740" y2="320.0" stroke="#eee"/>
<text x="62" y="324.0" text-anchor="end" fill="#555">0</text>
<line x1="70" y1="264.0" x2="740" y2="264.0" stroke="#eee"/>
<text x="62" y="268.0" text-anchor="end" fill="#555">2</text>
<line x1="70" y1="208.0" x2="740" y2="208.0" stroke="#eee"/>
<text x="62" y="212.0" text-anchor="end" fill="#555">3</text>
<line x1="70" y1="152.0" x2="740" y2="152.0" stroke="#eee"/>
<text x="62" y="156.0" text-anchor="end" fill="#555">5</text>
<line x1="70" y1="96.0" x2="740" y2="96.0" stroke="#eee"/>
<text x="62" y="100.0" text-anchor="end" fill="#555">7</text>
<line x1="70" y1="40.0" x2="740" y2="40.0" stroke="#eee"/>
<text x="62" y="44.0" text-anchor="end" fill="#555">9</text>
<text x="18" y="180" text-anchor="middle" fill="#555" transform="rotate(-90 18 180)">slowdown vs fastest (x)</text>
<text x="111.9" y="340" text-anchor="middle" fill="#555">short</text>
<text x="195.6" y="340" text-anchor="middle" fill="#555">medium</text>
<text x="279.4" y="340" text-anchor="middle" fill="#555">long</text>
<text x="363.1" y="340" text-anchor="middle" fill="#555">thr b=1</text>
<text x="446.9" y="340" text-anchor="middle" fill="#555">thr b=8</text>
<text x="530.6" y="340" text-anchor="middle" fill="#555">thr b=16</text>
<text x="614.4" y="340" text-anchor="middle" fill="#555">thr b=32</text>
<text x="698.1" y="340" text-anchor="middle" fill="#555">thr b=64</text>
<line x1="70" y1="287.6" x2="740" y2="287.6" stroke="#c00" stroke-dasharray="4"/>
<text x="738" y="283.6" text-anchor="end" fill="#c00">1.0 (fastest)</text>
<rect x="78.4" y="287.6" width="33.5" height="32.4" fill="#2c7fb8"/>
<rect x="111.9" y="65.5" width="33.5" height="254.5" fill="#de8a26"/>
<rect x="162.1" y="287.6" width="33.5" height="32.4" fill="#2c7fb8"/>
<rect x="195.6" y="144.2" width="33.5" height="175.8" fill="#de8a26"/>
<rect x="245.9" y="287.6" width="33.5" height="32.4" fill="#2c7fb8"/>
<rect x="279.4" y="264.7" width="33.5" height="55.3" fill="#de8a26"/>
<rect x="329.6" y="287.6" width="33.5" height="32.4" fill="#2c7fb8"/>
<rect x="363.1" y="142.7" width="33.5" height="177.3" fill="#de8a26"/>
<rect x="413.4" y="287.6" width="33.5" height="32.4" fill="#2c7fb8"/>
<rect x="446.9" y="182.0" width="33.5" height="138.0" fill="#de8a26"/>
<rect x="497.1" y="287.6" width="33.5" height="32.4" fill="#2c7fb8"/>
<rect x="530.6" y="186.2" width="33.5" height="133.8" fill="#de8a26"/>
<rect x="580.9" y="287.6" width="33.5" height="32.4" fill="#2c7fb8"/>
<rect x="614.4" y="183.6" width="33.5" height="136.4" fill="#de8a26"/>
<rect x="664.6" y="287.6" width="33.5" height="32.4" fill="#2c7fb8"/>
<rect x="698.1" y="183.5" width="33.5" height="136.5" fill="#de8a26"/>
<rect x="70" y="36" width="12" height="12" fill="#2c7fb8"/><text x="86" y="47">candle-cpu</text><rect x="200" y="36" width="12" height="12" fill="#de8a26"/><text x="216" y="47">burn-wgpu</text>
</svg>
