<svg xmlns="http://www.w3.org/2000/svg" width="680" height="380" font-family="sans-serif" font-size="13">
<rect width="680" height="380" fill="white"/>
<text x="340.0" y="22" text-anchor="middle" font-size="15" font-weight="bold">Latency (lower is better) — Apple M4, 1 thread, AC — 10 trials (median, IQR whiskers)</text>
<line x1="70" y1="320" x2="660" y2="320" stroke="#333"/>
<line x1="70" y1="320" x2="70" y2="40" stroke="#333"/>
<line x1="70" y1="320.0" x2="660" y2="320.0" stroke="#eee"/>
<text x="62" y="324.0" text-anchor="end" fill="#555">0</text>
<line x1="70" y1="264.0" x2="660" y2="264.0" stroke="#eee"/>
<text x="62" y="268.0" text-anchor="end" fill="#555">4</text>
<line x1="70" y1="208.0" x2="660" y2="208.0" stroke="#eee"/>
<text x="62" y="212.0" text-anchor="end" fill="#555">8</text>
<line x1="70" y1="152.0" x2="660" y2="152.0" stroke="#eee"/>
<text x="62" y="156.0" text-anchor="end" fill="#555">12</text>
<line x1="70" y1="96.0" x2="660" y2="96.0" stroke="#eee"/>
<text x="62" y="100.0" text-anchor="end" fill="#555">16</text>
<line x1="70" y1="40.0" x2="660" y2="40.0" stroke="#eee"/>
<text x="62" y="44.0" text-anchor="end" fill="#555">20</text>
<text x="18" y="180" text-anchor="middle" fill="#555" transform="rotate(-90 18 180)">p50 latency (ms)</text>
<text x="168.3" y="340" text-anchor="middle" fill="#555">short</text>
<text x="365.0" y="340" text-anchor="middle" fill="#555">medium</text>
<text x="561.7" y="340" text-anchor="middle" fill="#555">long</text>
<rect x="105.4" y="268.7" width="62.9" height="51.3" fill="#2c7fb8"/>
<line x1="136.9" y1="270.8" x2="136.9" y2="267.1" stroke="#333"/>
<rect x="168.3" y="232.6" width="62.9" height="87.4" fill="#de8a26"/>
<line x1="199.8" y1="234.5" x2="199.8" y2="230.4" stroke="#333"/>
<rect x="302.1" y="264.5" width="62.9" height="55.5" fill="#2c7fb8"/>
<line x1="333.5" y1="265.7" x2="333.5" y2="264.2" stroke="#333"/>
<rect x="365.0" y="211.6" width="62.9" height="108.4" fill="#de8a26"/>
<line x1="396.5" y1="213.6" x2="396.5" y2="210.7" stroke="#333"/>
<rect x="498.7" y="186.0" width="62.9" height="134.0" fill="#2c7fb8"/>
<line x1="530.2" y1="188.9" x2="530.2" y2="183.2" stroke="#333"/>
<rect x="561.7" y="79.8" width="62.9" height="240.2" fill="#de8a26"/>
<line x1="593.1" y1="83.4" x2="593.1" y2="76.5" stroke="#333"/>
<rect x="430" y="36" width="12" height="12" fill="#2c7fb8"/><text x="446" y="47">candle-cpu</text><rect x="540" y="36" width="12" height="12" fill="#de8a26"/><text x="556" y="47">burn-ndarray</text>
</svg>
