<svg xmlns="http://www.w3.org/2000/svg" width="680" height="380" font-family="sans-serif" font-size="13">
<rect width="680" height="380" fill="white"/>
<text x="340.0" y="22" text-anchor="middle" font-size="15" font-weight="bold">Candle speedup vs Burn (faded = tie) — Apple M4, 1 thread, AC — 10 trials (median, IQR whiskers)</text>
<line x1="70" y1="320" x2="660" y2="320" stroke="#333"/>
<line x1="70" y1="320" x2="70" y2="40" stroke="#333"/>
<line x1="70" y1="320.0" x2="660" y2="320.0" stroke="#eee"/>
<text x="62" y="324.0" text-anchor="end" fill="#555">0</text>
<line x1="70" y1="264.0" x2="660" y2="264.0" stroke="#eee"/>
<text x="62" y="268.0" text-anchor="end" fill="#555">0</text>
<line x1="70" y1="208.0" x2="660" y2="208.0" stroke="#eee"/>
<text x="62" y="212.0" text-anchor="end" fill="#555">1</text>
<line x1="70" y1="152.0" x2="660" y2="152.0" stroke="#eee"/>
<text x="62" y="156.0" text-anchor="end" fill="#555">1</text>
<line x1="70" y1="96.0" x2="660" y2="96.0" stroke="#eee"/>
<text x="62" y="100.0" text-anchor="end" fill="#555">2</text>
<line x1="70" y1="40.0" x2="660" y2="40.0" stroke="#eee"/>
<text x="62" y="44.0" text-anchor="end" fill="#555">2</text>
<text x="18" y="180" text-anchor="middle" fill="#555" transform="rotate(-90 18 180)">Candle speedup (x)</text>
<text x="106.9" y="340" text-anchor="middle" fill="#555">short</text>
<text x="180.6" y="340" text-anchor="middle" fill="#555">medium</text>
<text x="254.4" y="340" text-anchor="middle" fill="#555">long</text>
<text x="328.1" y="340" text-anchor="middle" fill="#555">thr b=1</text>
<text x="401.9" y="340" text-anchor="middle" fill="#555">thr b=8</text>
<text x="475.6" y="340" text-anchor="middle" fill="#555">thr b=16</text>
<text x="549.4" y="340" text-anchor="middle" fill="#555">thr b=32</text>
<text x="623.1" y="340" text-anchor="middle" fill="#555">thr b=64</text>
<line x1="70" y1="188.5" x2="660" y2="188.5" stroke="#c00" stroke-dasharray="4"/>
<text x="658" y="184.5" text-anchor="end" fill="#c00">1.0 (tie)</text>
<rect x="88.4" y="91.8" width="36.9" height="228.2" fill="#2c7fb8" opacity="1"/>
<rect x="162.2" y="65.5" width="36.9" height="254.5" fill="#2c7fb8" opacity="1"/>
<rect x="235.9" y="85.1" width="36.9" height="234.9" fill="#2c7fb8" opacity="1"/>
<rect x="309.7" y="93.1" width="36.9" height="226.9" fill="#2c7fb8" opacity="1"/>
<rect x="383.4" y="78.8" width="36.9" height="241.2" fill="#2c7fb8" opacity="1"/>
<rect x="457.2" y="71.9" width="36.9" height="248.1" fill="#2c7fb8" opacity="1"/>
<rect x="530.9" y="75.6" width="36.9" height="244.4" fill="#2c7fb8" opacity="1"/>
<rect x="604.7" y="79.0" width="36.9" height="241.0" fill="#2c7fb8" opacity="1"/>
</svg>
