<svg xmlns="http://www.w3.org/2000/svg" width="760" height="380" font-family="sans-serif" font-size="13">
<rect width="760" height="380" fill="white"/>
<text x="380.0" y="22" text-anchor="middle" font-size="15" font-weight="bold">Throughput (higher is better) — Apple M4, 1 thread, AC — 10 trials (median, IQR whiskers)</text>
<line x1="70" y1="320" x2="740" y2="320" stroke="#333"/>
<line x1="70" y1="320" x2="70" y2="40" stroke="#333"/>
<line x1="70" y1="320.0" x2="740" y2="320.0" stroke="#eee"/>
<text x="62" y="324.0" text-anchor="end" fill="#555">0</text>
<line x1="70" y1="264.0" x2="740" y2="264.0" stroke="#eee"/>
<text x="62" y="268.0" text-anchor="end" fill="#555">297</text>
<line x1="70" y1="208.0" x2="740" y2="208.0" stroke="#eee"/>
<text x="62" y="212.0" text-anchor="end" fill="#555">595</text>
<line x1="70" y1="152.0" x2="740" y2="152.0" stroke="#eee"/>
<text x="62" y="156.0" text-anchor="end" fill="#555">892</text>
<line x1="70" y1="96.0" x2="740" y2="96.0" stroke="#eee"/>
<text x="62" y="100.0" text-anchor="end" fill="#555">1190</text>
<line x1="70" y1="40.0" x2="740" y2="40.0" stroke="#eee"/>
<text x="62" y="44.0" text-anchor="end" fill="#555">1487</text>
<text x="18" y="180" text-anchor="middle" fill="#555" transform="rotate(-90 18 180)">sentences / sec</text>
<text x="137.0" y="340" text-anchor="middle" fill="#555">b=1</text>
<text x="271.0" y="340" text-anchor="middle" fill="#555">b=8</text>
<text x="405.0" y="340" text-anchor="middle" fill="#555">b=16</text>
<text x="539.0" y="340" text-anchor="middle" fill="#555">b=32</text>
<text x="673.0" y="340" text-anchor="middle" fill="#555">b=64</text>
<circle cx="137.0" cy="263.9" r="3" fill="#2c7fb8"/>
<circle cx="271.0" cy="86.7" r="3" fill="#2c7fb8"/>
<circle cx="405.0" cy="93.0" r="3" fill="#2c7fb8"/>
<circle cx="539.0" cy="94.3" r="3" fill="#2c7fb8"/>
<circle cx="673.0" cy="100.1" r="3" fill="#2c7fb8"/>
<polyline points="137.0,263.9 271.0,86.7 405.0,93.0 539.0,94.3 673.0,100.1" fill="none" stroke="#2c7fb8" stroke-width="2"/>
<circle cx="137.0" cy="309.9" r="3" fill="#de8a26"/>
<circle cx="271.0" cy="288.9" r="3" fill="#de8a26"/>
<circle cx="405.0" cy="287.1" r="3" fill="#de8a26"/>
<circle cx="539.0" cy="286.1" r="3" fill="#de8a26"/>
<circle cx="673.0" cy="285.8" r="3" fill="#de8a26"/>
<polyline points="137.0,309.9 271.0,288.9 405.0,287.1 539.0,286.1 673.0,285.8" fill="none" stroke="#de8a26" stroke-width="2"/>
<circle cx="137.0" cy="293.0" r="3" fill="#41ab5d"/>
<circle cx="271.0" cy="272.8" r="3" fill="#41ab5d"/>
<circle cx="405.0" cy="262.3" r="3" fill="#41ab5d"/>
<circle cx="539.0" cy="259.2" r="3" fill="#41ab5d"/>
<circle cx="673.0" cy="259.9" r="3" fill="#41ab5d"/>
<polyline points="137.0,293.0 271.0,272.8 405.0,262.3 539.0,259.2 673.0,259.9" fill="none" stroke="#41ab5d" stroke-width="2"/>
<rect x="70" y="36" width="12" height="12" fill="#2c7fb8"/><text x="86" y="47">candle-metal</text><rect x="200" y="36" width="12" height="12" fill="#de8a26"/><text x="216" y="47">burn-wgpu</text><rect x="330" y="36" width="12" height="12" fill="#41ab5d"/><text x="346" y="47">ort-coreml</text>
</svg>
